<?xml version="1.0" encoding="UTF-8"?>
<!DOCTYPE svg PUBLIC "-//W3C//DTD SVG 1.1//EN" "http://www.w3.org/Graphics/SVG/1.1/DTD/svg11.dtd">
<svg xmlns="http://www.w3.org/2000/svg" version="1.1" width="136px" height="54px" style="shape-rendering:geometricPrecision; text-rendering:geometricPrecision; image-rendering:optimizeQuality; fill-rule:evenodd; clip-rule:evenodd" xmlns:xlink="http://www.w3.org/1999/xlink">
<g><path style="opacity:1" fill="#f6e6ea" d="M -0.5,-0.5 C 44.8333,-0.5 90.1667,-0.5 135.5,-0.5C 135.5,17.5 135.5,35.5 135.5,53.5C 90.1667,53.5 44.8333,53.5 -0.5,53.5C -0.5,35.5 -0.5,17.5 -0.5,-0.5 Z"/></g>
<g><path style="opacity:1" fill="#988988" d="M 21.5,4.5 C 16.9677,4.18178 12.6344,4.51511 8.5,5.5C 7.95691,5.44001 7.62358,5.10667 7.5,4.5C 12.3181,3.18757 16.9848,3.18757 21.5,4.5 Z"/></g>
<g><path style="opacity:1" fill="#baaaab" d="M 128.5,5.5 C 126.167,4.16667 123.833,4.16667 121.5,5.5C 120.957,5.44001 120.624,5.10667 120.5,4.5C 123.5,3.16667 126.5,3.16667 129.5,4.5C 129.376,5.10667 129.043,5.44001 128.5,5.5 Z"/></g>
<g><path style="opacity:1" fill="#5d4e4c" d="M 21.5,4.5 C 26.2881,5.12304 28.1214,7.7897 27,12.5C 26.1667,14 25,15.1667 23.5,16C 20.2337,16.3342 17.2337,16.5008 14.5,16.5C 17.5448,20.3904 21.3782,21.3904 26,19.5C 26.4955,21.4727 26.6621,23.4727 26.5,25.5C 19.7633,25.9402 15.2633,22.9402 13,16.5C 12.2506,15.365 12.4173,14.365 13.5,13.5C 16.1029,14.5617 18.7695,14.7284 21.5,14C 22.9156,12.0849 22.5822,10.5849 20.5,9.5C 17.3752,8.52056 14.0419,8.18723 10.5,8.5C 10.1936,11.3854 10.5269,14.0521 11.5,16.5C 11.7377,20.138 13.4044,22.9713 16.5,25C 13.5,25.6667 10.5,25.6667 7.5,25C 8.12576,24.2496 8.62576,23.4162 9,22.5C 9.78474,16.7507 9.61807,11.084 8.5,5.5C 12.6344,4.51511 16.9677,4.18178 21.5,4.5 Z"/></g>
<g><path style="opacity:1" fill="#615250" d="M 52.5,3.5 C 57.5111,3.33407 62.5111,3.50074 67.5,4C 71.2916,6.05271 72.4582,9.21938 71,13.5C 70.1667,14.3333 69.3333,15.1667 68.5,16C 65.5,16.3333 62.5,16.6667 59.5,17C 62.5764,20.4019 66.2431,21.2353 70.5,19.5C 71.4656,21.396 71.7989,23.396 71.5,25.5C 65.1593,26.0016 60.6593,23.335 58,17.5C 57.3333,16.1667 57.3333,14.8333 58,13.5C 60.7372,14.6105 63.5706,14.7772 66.5,14C 68.013,11.5459 67.3463,9.87927 64.5,9C 61.5184,8.50204 58.5184,8.33537 55.5,8.5C 54.6404,15.0917 56.6404,20.5917 61.5,25C 58.5,25.6667 55.5,25.6667 52.5,25C 55.1436,17.839 55.1436,10.6724 52.5,3.5 Z"/></g>
<g><path style="opacity:1" fill="#b6a7a8" d="M 20.5,9.5 C 17.5,9.5 14.5,9.5 11.5,9.5C 11.5,11.8333 11.5,14.1667 11.5,16.5C 10.5269,14.0521 10.1936,11.3854 10.5,8.5C 14.0419,8.18723 17.3752,8.52056 20.5,9.5 Z"/></g>
<g><path style="opacity:1" fill="#645452" d="M 47.5,15.5 C 50.5,15.1667 51.8333,16.5 51.5,19.5C 49.8333,19.5 48.1667,19.5 46.5,19.5C 46.4326,18.0413 46.7659,16.7079 47.5,15.5 Z"/></g>
<g><path style="opacity:1" fill="#867775" d="M 96.5,16.5 C 99.5228,15.8529 102.523,15.5195 105.5,15.5C 106.625,16.3478 106.625,17.3478 105.5,18.5C 103.283,17.6314 100.95,17.298 98.5,17.5C 98.1583,16.6618 97.4916,16.3284 96.5,16.5 Z"/></g>
<g><path style="opacity:1" fill="#60514e" d="M 96.5,16.5 C 97.4916,16.3284 98.1583,16.6618 98.5,17.5C 95.8269,17.6845 95.1602,18.8511 96.5,21C 100.207,21.9963 103.541,21.3296 106.5,19C 106.272,18.6012 105.938,18.4346 105.5,18.5C 106.625,17.3478 106.625,16.3478 105.5,15.5C 101.574,12.85 97.5741,12.85 93.5,15.5C 90.7448,13.2388 91.0782,11.4055 94.5,10C 97.8333,9.33333 101.167,9.33333 104.5,10C 105.333,10.8333 106.167,11.6667 107,12.5C 107.232,16.5548 107.732,20.5548 108.5,24.5C 108.167,24.8333 107.833,25.1667 107.5,25.5C 106.749,24.624 106.249,23.624 106,22.5C 102.319,25.3597 98.1519,26.1931 93.5,25C 90.4313,20.7843 91.4313,17.951 96.5,16.5 Z"/></g>
<g><path style="opacity:1" fill="#eedee2" d="M 98.5,17.5 C 100.95,17.298 103.283,17.6314 105.5,18.5C 105.938,18.4346 106.272,18.6012 106.5,19C 103.541,21.3296 100.207,21.9963 96.5,21C 95.1602,18.8511 95.8269,17.6845 98.5,17.5 Z"/></g>
<g><path style="opacity:1" fill="#61514f" d="M 42.5,18.5 C 44.7446,19.8278 45.0779,21.6612 43.5,24C 32.9641,27.997 28.4641,24.497 30,13.5C 30.5,11.6667 31.6667,10.5 33.5,10C 36.1667,9.33333 38.8333,9.33333 41.5,10C 44.9985,12.486 45.3319,15.3193 42.5,18.5 Z"/></g>
<g><path style="opacity:1" fill="#f2e2e6" d="M 42.5,18.5 C 41.3932,20.9311 39.3932,21.9311 36.5,21.5C 33.9937,21.7793 31.9937,20.9459 30.5,19C 34.4862,18.5012 38.4862,18.3345 42.5,18.5 Z"/></g>
<g><path style="opacity:1" fill="#f1e1e5" d="M 32.5,13.5 C 35.1873,13.3359 37.854,13.5026 40.5,14C 42.4812,14.6054 42.8146,15.6054 41.5,17C 37.7887,17.8253 34.122,17.6586 30.5,16.5C 31.1925,15.4822 31.8592,14.4822 32.5,13.5 Z"/></g>
<g><path style="opacity:1" fill="#61524f" d="M 77.5,9.5 C 80.5184,9.33537 83.5184,9.50204 86.5,10C 89.9318,12.367 90.2652,15.0337 87.5,18C 83.5,18.3333 79.5,18.6667 75.5,19C 79.6061,22.1271 83.9394,22.2937 88.5,19.5C 89.6662,21.3649 89.3329,23.0316 87.5,24.5C 79.5342,27.7822 74.8675,25.2822 73.5,17C 73.9274,13.9766 75.2607,11.4766 77.5,9.5 Z"/></g>
<g><path style="opacity:1" fill="#f4e4e7" d="M 77.5,13.5 C 80.1873,13.3359 82.854,13.5026 85.5,14C 86.8333,15 86.8333,16 85.5,17C 82.1177,17.8236 78.7844,17.657 75.5,16.5C 76.1925,15.4822 76.8592,14.4822 77.5,13.5 Z"/></g>
<g><path style="opacity:1" fill="#635452" d="M 128.5,5.5 C 126.951,12.1005 127.285,18.6005 129.5,25C 124.051,25.8962 118.718,25.5628 113.5,24C 109.231,19.0104 109.564,14.3437 114.5,10C 117.993,8.99629 121.159,9.49629 124,11.5C 124.667,10.5 124.667,9.5 124,8.5C 122.955,7.62656 122.122,6.62656 121.5,5.5C 123.833,4.16667 126.167,4.16667 128.5,5.5 Z"/></g>
<g><path style="opacity:1" fill="#f4e4e7" d="M 114.5,13.5 C 121.148,11.7102 124.814,14.0435 125.5,20.5C 121.486,20.6655 117.486,20.4988 113.5,20C 112.144,17.5859 112.478,15.4193 114.5,13.5 Z"/></g>
<g><path style="opacity:1" fill="#625350" d="M 47.5,21.5 C 48.8333,21.5 50.1667,21.5 51.5,21.5C 51.5,22.8333 51.5,24.1667 51.5,25.5C 47.56,26.234 46.2266,24.9007 47.5,21.5 Z"/></g>
<g><path style="opacity:1" fill="#786967" d="M 53.5,34.5 C 55.5273,34.3379 57.5273,34.5045 59.5,35C 60.0219,35.5613 60.3552,36.228 60.5,37C 60.1723,39.0246 60.0056,41.1912 60,43.5C 57.9592,44.4231 55.7925,44.7564 53.5,44.5C 53.5,41.1667 53.5,37.8333 53.5,34.5 Z"/></g>
<g><path style="opacity:1" fill="#f8e8ec" d="M 55.5,35.5 C 56.5,35.5 57.5,35.5 58.5,35.5C 58.5,36.5 58.5,37.5 58.5,38.5C 57.5,38.5 56.5,38.5 55.5,38.5C 55.5,37.5 55.5,36.5 55.5,35.5 Z"/></g>
<g><path style="opacity:1" fill="#80716f" d="M 93.5,34.5 C 95.1992,34.3398 96.8659,34.5065 98.5,35C 99.6956,35.6543 99.6956,36.1543 98.5,36.5C 97.2638,35.7542 95.9305,35.4208 94.5,35.5C 94.5,36.5 94.5,37.5 94.5,38.5C 98.3315,38.1902 99.8315,39.8569 99,43.5C 97,44.8333 95,44.8333 93,43.5C 92.3123,42.6683 92.479,42.0016 93.5,41.5C 94.5237,42.8532 95.857,43.5198 97.5,43.5C 97.1699,40.8906 95.6699,39.2239 93,38.5C 92.4209,37.0715 92.5876,35.7382 93.5,34.5 Z"/></g>
<g><path style="opacity:1" fill="#7b6b6a" d="M 101.5,34.5 C 102.931,35.0819 104.264,35.9152 105.5,37C 102.833,39.3333 102.833,41.6667 105.5,44C 104.216,44.6838 103.049,44.5171 102,43.5C 101.122,40.3556 100.955,37.3556 101.5,34.5 Z"/></g>
<g><path style="opacity:1" fill="#6d5d5b" d="M 128.5,40.5 C 127.833,40.5 127.5,40.1667 127.5,39.5C 125.833,36.8333 124.167,36.8333 122.5,39.5C 122.737,40.791 122.404,41.791 121.5,42.5C 120.507,37.3248 122.507,35.4914 127.5,37C 128.337,38.0113 128.67,39.1779 128.5,40.5 Z"/></g>
<g><path style="opacity:1" fill="#eedee1" d="M 127.5,39.5 C 125.833,39.5 124.167,39.5 122.5,39.5C 124.167,36.8333 125.833,36.8333 127.5,39.5 Z"/></g>
<g><path style="opacity:1" fill="#f1e1e4" d="M 55.5,40.5 C 56.9778,40.238 58.3112,40.5713 59.5,41.5C 58.6798,43.1112 57.3464,43.7778 55.5,43.5C 55.5,42.5 55.5,41.5 55.5,40.5 Z"/></g>
<g><path style="opacity:1" fill="#5d4e4c" d="M 116.5,36.5 C 117.289,36.7828 117.956,37.2828 118.5,38C 117.736,40.0693 117.236,42.236 117,44.5C 116.503,41.854 116.336,39.1873 116.5,36.5 Z"/></g>
<g><path style="opacity:1" fill="#948584" d="M 122.5,39.5 C 124.167,39.5 125.833,39.5 127.5,39.5C 127.5,40.1667 127.833,40.5 128.5,40.5C 128.22,44.2253 126.22,45.392 122.5,44C 121.944,43.6174 121.611,43.1174 121.5,42.5C 122.404,41.791 122.737,40.791 122.5,39.5 Z"/></g>
<g><path style="opacity:1" fill="#6f5f5d" d="M 81.5,33.5 C 82.3091,35.2922 82.8091,37.2922 83,39.5C 87.8163,35.4861 88.3163,35.8195 84.5,40.5C 88.3163,45.1805 87.8163,45.5139 83,41.5C 82.6667,42.5 82.3333,43.5 82,44.5C 81.5014,40.8484 81.3347,37.1817 81.5,33.5 Z"/></g>
<g><path style="opacity:1" fill="#f0e0e4" d="M 123.5,41.5 C 127.588,41.2184 128.088,41.8851 125,43.5C 123.97,43.1639 123.47,42.4972 123.5,41.5 Z"/></g>
<g><path style="opacity:1" fill="#796968" d="M 63.5,36.5 C 70.004,36.1377 71.6707,38.6377 68.5,44C 62.5933,44.7465 60.9267,42.2465 63.5,36.5 Z"/></g>
<g><path style="opacity:1" fill="#f0e0e4" d="M 64.5,37.5 C 68.35,37.7007 69.35,39.5341 67.5,43C 63.5369,43.1177 62.5369,41.2843 64.5,37.5 Z"/></g>
<g><path style="opacity:1" fill="#7f706e" d="M 73.5,36.5 C 79.4877,36.664 80.821,39.164 77.5,44C 71.4128,44.2054 70.0795,41.7054 73.5,36.5 Z"/></g>
<g><path style="opacity:1" fill="#f6e6ea" d="M 74.5,37.5 C 76.4841,37.484 77.4841,38.484 77.5,40.5C 76.1667,44.5 74.8333,44.5 73.5,40.5C 73.685,39.4163 74.0183,38.4163 74.5,37.5 Z"/></g>
<g><path style="opacity:1" fill="#7f706e" d="M 108.5,36.5 C 114.488,36.664 115.821,39.164 112.5,44C 106.413,44.2054 105.079,41.7054 108.5,36.5 Z"/></g>
<g><path style="opacity:1" fill="#f6e6ea" d="M 109.5,37.5 C 111.484,37.484 112.484,38.484 112.5,40.5C 111.167,44.5 109.833,44.5 108.5,40.5C 108.685,39.4163 109.018,38.4163 109.5,37.5 Z"/></g>
</svg>
